# Blender v2.91.0 OBJ File: 'Blade.blend'
# www.blender.org
mtllib Blade.mtl
o Blade_Cube
v 0.000000 0.000000 -0.500000
v 0.000000 -0.250000 0.000000
v 4.000000 0.000000 0.000000
v 0.000000 0.250000 0.000000
v -1.000000 0.000000 0.000000
v 0.000000 0.000000 0.500000
vt 0.000000 0.000000
vt 0.875000 0.750000
vt 0.000000 0.000000
vt 0.875000 0.500000
vt 0.000000 0.000000
vt 0.000000 0.000000
vt 0.625000 0.500000
vn 0.0558 -0.8930 0.4465
vn -0.2182 0.8729 0.4364
vn -0.2182 -0.8729 -0.4364
vn -0.2182 0.8729 -0.4364
vn -0.2182 -0.8729 0.4364
vn 0.0558 -0.8930 -0.4465
vn 0.0558 0.8930 0.4465
vn 0.0558 0.8930 -0.4465
usemtl Material
s off
f 3/1/1 6/2/1 2/3/1
f 4/4/2 5/5/2 6/2/2
f 2/3/3 5/5/3 1/6/3
f 1/7/4 5/5/4 4/4/4
f 6/2/5 5/5/5 2/3/5
f 2/3/6 1/6/6 3/1/6
f 3/1/7 4/4/7 6/2/7
f 1/7/8 4/4/8 3/1/8
